<svg width="181" height="45" viewBox="0 0 181 45" fill="none" xmlns="http://www.w3.org/2000/svg">
<path d="M60.7562 9.72727H65.6767V24.8409C65.6767 26.5379 65.2714 28.0227 64.4608 29.2955C63.6577 30.5682 62.5327 31.5606 61.0858 32.2727C59.6388 32.9773 57.9532 33.3295 56.0289 33.3295C54.0971 33.3295 52.4077 32.9773 50.9608 32.2727C49.5138 31.5606 48.3888 30.5682 47.5858 29.2955C46.7827 28.0227 46.3812 26.5379 46.3812 24.8409V9.72727H51.3017V24.4205C51.3017 25.3068 51.4949 26.0947 51.8812 26.7841C52.2752 27.4735 52.8282 28.0152 53.5403 28.4091C54.2524 28.803 55.082 29 56.0289 29C56.9835 29 57.813 28.803 58.5176 28.4091C59.2297 28.0152 59.7789 27.4735 60.1653 26.7841C60.5592 26.0947 60.7562 25.3068 60.7562 24.4205V9.72727ZM69.6341 39.5455V15.5455H74.4068V18.4773H74.6227C74.8348 18.0076 75.1416 17.5303 75.5431 17.0455C75.9522 16.553 76.4825 16.1439 77.1341 15.8182C77.7931 15.4848 78.6113 15.3182 79.5886 15.3182C80.8613 15.3182 82.0356 15.6515 83.1113 16.3182C84.1871 16.9773 85.0469 17.9735 85.6909 19.3068C86.3348 20.6326 86.6568 22.2955 86.6568 24.2955C86.6568 26.2424 86.3424 27.8864 85.7136 29.2273C85.0924 30.5606 84.2439 31.572 83.1681 32.2614C82.1 32.9432 80.903 33.2841 79.5772 33.2841C78.6378 33.2841 77.8386 33.1288 77.1795 32.8182C76.528 32.5076 75.9939 32.1174 75.5772 31.6477C75.1606 31.1705 74.8424 30.6894 74.6227 30.2045H74.475V39.5455H69.6341ZM74.3727 24.2727C74.3727 25.3106 74.5166 26.2159 74.8045 26.9886C75.0924 27.7614 75.5091 28.3636 76.0545 28.7955C76.6 29.2197 77.2628 29.4318 78.0431 29.4318C78.831 29.4318 79.4977 29.2159 80.0431 28.7841C80.5886 28.3447 81.0015 27.7386 81.2818 26.9659C81.5697 26.1856 81.7136 25.2879 81.7136 24.2727C81.7136 23.2652 81.5735 22.3788 81.2931 21.6136C81.0128 20.8485 80.6 20.25 80.0545 19.8182C79.5091 19.3864 78.8386 19.1705 78.0431 19.1705C77.2553 19.1705 76.5886 19.3788 76.0431 19.7955C75.5053 20.2121 75.0924 20.803 74.8045 21.5682C74.5166 22.3333 74.3727 23.2348 74.3727 24.2727ZM89.8386 33V29.4545L98.1227 21.7841C98.8272 21.1023 99.4181 20.4886 99.8954 19.9432C100.38 19.3977 100.748 18.8636 100.998 18.3409C101.248 17.8106 101.373 17.2386 101.373 16.625C101.373 15.9432 101.217 15.3561 100.907 14.8636C100.596 14.3636 100.172 13.9811 99.6341 13.7159C99.0962 13.4432 98.4863 13.3068 97.8045 13.3068C97.0924 13.3068 96.4712 13.4508 95.9409 13.7386C95.4106 14.0265 95.0015 14.4394 94.7136 14.9773C94.4257 15.5152 94.2818 16.1553 94.2818 16.8977H89.6113C89.6113 15.375 89.956 14.053 90.6454 12.9318C91.3348 11.8106 92.3007 10.9432 93.5431 10.3295C94.7856 9.71591 96.2174 9.40909 97.8386 9.40909C99.5053 9.40909 100.956 9.70454 102.191 10.2955C103.433 10.8788 104.399 11.6894 105.089 12.7273C105.778 13.7652 106.123 14.9545 106.123 16.2955C106.123 17.1742 105.948 18.0417 105.6 18.8977C105.259 19.7538 104.649 20.7045 103.77 21.75C102.892 22.7879 101.653 24.0341 100.055 25.4886L96.6568 28.8182V28.9773H106.43V33H89.8386ZM118.381 33H110.131V9.72727H118.449C120.79 9.72727 122.805 10.1932 124.495 11.125C126.184 12.0492 127.483 13.3788 128.393 15.1136C129.309 16.8485 129.768 18.9242 129.768 21.3409C129.768 23.7652 129.309 25.8485 128.393 27.5909C127.483 29.3333 126.177 30.6705 124.472 31.6023C122.775 32.5341 120.745 33 118.381 33ZM115.052 28.7841H118.177C119.631 28.7841 120.855 28.5265 121.847 28.0114C122.847 27.4886 123.597 26.6818 124.097 25.5909C124.605 24.4924 124.858 23.0758 124.858 21.3409C124.858 19.6212 124.605 18.2159 124.097 17.125C123.597 16.0341 122.851 15.2311 121.858 14.7159C120.866 14.2008 119.643 13.9432 118.188 13.9432H115.052V28.7841ZM138.299 33.3295C137.185 33.3295 136.193 33.1364 135.322 32.75C134.45 32.3561 133.761 31.7765 133.253 31.0114C132.753 30.2386 132.503 29.2765 132.503 28.125C132.503 27.1553 132.681 26.3409 133.037 25.6818C133.394 25.0227 133.878 24.4924 134.492 24.0909C135.106 23.6894 135.803 23.3864 136.583 23.1818C137.371 22.9773 138.197 22.8333 139.06 22.75C140.075 22.6439 140.894 22.5455 141.515 22.4545C142.136 22.3561 142.587 22.2121 142.867 22.0227C143.147 21.8333 143.287 21.553 143.287 21.1818V21.1136C143.287 20.3939 143.06 19.8371 142.606 19.4432C142.159 19.0492 141.522 18.8523 140.697 18.8523C139.825 18.8523 139.132 19.0455 138.617 19.4318C138.102 19.8106 137.761 20.2879 137.594 20.8636L133.117 20.5C133.344 19.4394 133.791 18.5227 134.458 17.75C135.125 16.9697 135.984 16.3712 137.037 15.9545C138.098 15.5303 139.325 15.3182 140.719 15.3182C141.689 15.3182 142.617 15.4318 143.503 15.6591C144.397 15.8864 145.189 16.2386 145.878 16.7159C146.575 17.1932 147.125 17.8068 147.526 18.5568C147.928 19.2992 148.128 20.1894 148.128 21.2273V33H143.537V30.5795H143.401C143.121 31.125 142.746 31.6061 142.276 32.0227C141.806 32.4318 141.242 32.7538 140.583 32.9886C139.924 33.2159 139.162 33.3295 138.299 33.3295ZM139.685 29.9886C140.397 29.9886 141.026 29.8485 141.572 29.5682C142.117 29.2803 142.545 28.8939 142.856 28.4091C143.166 27.9242 143.322 27.375 143.322 26.7614V24.9091C143.17 25.0076 142.962 25.0985 142.697 25.1818C142.439 25.2576 142.147 25.3295 141.822 25.3977C141.496 25.4583 141.17 25.5152 140.844 25.5682C140.519 25.6136 140.223 25.6553 139.958 25.6932C139.39 25.7765 138.894 25.9091 138.469 26.0909C138.045 26.2727 137.715 26.5189 137.481 26.8295C137.246 27.1326 137.128 27.5114 137.128 27.9659C137.128 28.625 137.367 29.1288 137.844 29.4773C138.329 29.8182 138.943 29.9886 139.685 29.9886ZM161.168 15.5455V19.1818H150.657V15.5455H161.168ZM153.043 11.3636H157.884V27.6364C157.884 28.0833 157.952 28.4318 158.089 28.6818C158.225 28.9242 158.414 29.0947 158.657 29.1932C158.907 29.2917 159.195 29.3409 159.52 29.3409C159.748 29.3409 159.975 29.322 160.202 29.2841C160.43 29.2386 160.604 29.2045 160.725 29.1818L161.486 32.7841C161.244 32.8598 160.903 32.947 160.464 33.0455C160.024 33.1515 159.49 33.2159 158.861 33.2386C157.695 33.2841 156.672 33.1288 155.793 32.7727C154.922 32.4167 154.244 31.8636 153.759 31.1136C153.274 30.3636 153.036 29.4167 153.043 28.2727V11.3636ZM172.089 33.3409C170.293 33.3409 168.748 32.9773 167.452 32.25C166.164 31.5152 165.172 30.4773 164.475 29.1364C163.778 27.7879 163.43 26.1932 163.43 24.3523C163.43 22.5568 163.778 20.9811 164.475 19.625C165.172 18.2689 166.153 17.2121 167.418 16.4545C168.691 15.697 170.183 15.3182 171.895 15.3182C173.047 15.3182 174.119 15.5038 175.111 15.875C176.111 16.2386 176.983 16.7879 177.725 17.5227C178.475 18.2576 179.058 19.1818 179.475 20.2955C179.892 21.4015 180.1 22.697 180.1 24.1818V25.5114H165.361V22.5114H175.543C175.543 21.8144 175.392 21.197 175.089 20.6591C174.786 20.1212 174.365 19.7008 173.827 19.3977C173.297 19.0871 172.68 18.9318 171.975 18.9318C171.24 18.9318 170.589 19.1023 170.02 19.4432C169.46 19.7765 169.02 20.2273 168.702 20.7955C168.384 21.3561 168.221 21.9811 168.214 22.6705V25.5227C168.214 26.3864 168.373 27.1326 168.691 27.7614C169.017 28.3902 169.475 28.875 170.066 29.2159C170.657 29.5568 171.358 29.7273 172.168 29.7273C172.706 29.7273 173.198 29.6515 173.645 29.5C174.092 29.3485 174.475 29.1212 174.793 28.8182C175.111 28.5152 175.354 28.1439 175.52 27.7045L179.998 28C179.77 29.0758 179.305 30.0152 178.6 30.8182C177.903 31.6136 177.001 32.2348 175.895 32.6818C174.797 33.1212 173.528 33.3409 172.089 33.3409Z" fill="black"/>
<path d="M22.8356 35.6955C22.8754 31.4734 21.8454 28.0399 20.5351 28.0266C19.2248 28.0134 18.1304 31.4253 18.0908 35.6473C18.0511 39.8695 19.0811 43.303 20.3913 43.3163C21.7016 43.3296 22.796 39.9177 22.8356 35.6955Z" fill="#FF6B18"/>
<path d="M15.2366 34.7366C17.4667 31.2071 18.3866 27.74 17.2913 26.9926C16.1959 26.2452 13.5001 28.5005 11.2702 32.03C9.04005 35.5595 8.12013 39.0265 9.21538 39.774C10.3108 40.5214 13.0065 38.2661 15.2366 34.7366Z" fill="#FF6B18"/>
<path d="M9.33373 29.6728C13.046 27.9568 15.6238 25.557 15.0911 24.3128C14.5586 23.0686 11.1176 23.4512 7.40519 25.1672C3.69288 26.8832 1.11518 29.283 1.64771 30.5272C2.18025 31.7714 5.62138 31.3888 9.33373 29.6728Z" fill="#FF6B18"/>
<path d="M14.6456 20.8238C14.8449 19.4779 11.7511 17.8661 7.7355 17.2238C3.71975 16.5814 0.302793 17.1518 0.10346 18.4977C-0.0958631 19.8436 2.99791 21.4552 7.01363 22.0976C11.0293 22.7399 14.4463 22.1695 14.6456 20.8238Z" fill="#FF6B18"/>
<path d="M16.0874 17.6175C16.9551 16.5973 15.1905 13.5034 12.1461 10.7072C9.10172 7.91108 5.93034 6.4715 5.0626 7.49183C4.19486 8.51219 5.95941 11.6061 9.00386 14.4022C12.0483 17.1984 15.2197 18.6379 16.0874 17.6175Z" fill="#FF6B18"/>
<path d="M18.9587 15.7438C20.2195 15.373 20.3447 11.7789 19.2385 7.71606C18.1323 3.65326 16.2133 0.660285 14.9525 1.03104C13.6917 1.40181 13.5664 4.99593 14.6727 9.05879C15.7789 13.1215 17.6978 16.1145 18.9587 15.7438Z" fill="#FF6B18"/>
<path d="M26.7553 9.18518C27.9385 5.14582 27.8815 1.54983 26.628 1.15331C25.3744 0.756774 23.399 3.70984 22.2159 7.74918C21.0328 11.7885 21.0898 15.3845 22.3433 15.781C23.597 16.1776 25.5723 13.2245 26.7553 9.18518Z" fill="#FF6B18"/>
<path d="M32.3265 14.6432C35.4229 11.9094 37.2454 8.85199 36.3969 7.81423C35.5485 6.77647 32.3506 8.15138 29.2542 10.8851C26.1578 13.6189 24.3354 16.6763 25.1839 17.7141C26.0322 18.7518 29.2301 17.377 32.3265 14.6432Z" fill="#FF6B18"/>
<path d="M34.1685 22.367C38.1957 21.807 41.3194 20.2591 41.1456 18.9093C40.9719 17.5597 37.5665 16.9195 33.5393 17.4793C29.5122 18.0392 26.3884 19.5872 26.5622 20.9369C26.736 22.2866 30.1413 22.9269 34.1685 22.367Z" fill="#FF6B18"/>
<path d="M39.3635 30.9129C39.9196 29.6799 37.3879 27.2279 33.7088 25.4361C30.0299 23.6443 26.5966 23.1914 26.0406 24.4243C25.4845 25.6574 28.0163 28.1095 31.6953 29.9013C35.3742 31.693 38.8075 32.146 39.3635 30.9129Z" fill="#FF6B18"/>
<path d="M31.6249 40.0107C32.7342 39.2859 31.8802 35.8006 29.7176 32.2261C27.5549 28.6517 24.9024 26.3416 23.7931 27.0664C22.6839 27.7912 23.5378 31.2765 25.7005 34.851C27.8631 38.4255 30.5156 40.7356 31.6249 40.0107Z" fill="#FF6B18"/>
</svg>
